<?xml version="1.0" encoding="UTF-8"?>
<svg version="1.1" xmlns="http://www.w3.org/2000/svg" width="512" height="312">
<path d="M0 0 C0.99 0 1.98 0 3 0 C3 1.98 3 3.96 3 6 C2.34 6 1.68 6 1 6 C1 7.32 1 8.64 1 10 C4.02926548 9.37439083 5.52122303 8.66922385 8.25 6.9375 C14.66261137 3.67115114 22.03845546 4.1765171 29 5 C32.67322451 6.24742336 35.74467445 7.91810575 39 10 C39.7115625 10.31582031 40.423125 10.63164062 41.15625 10.95703125 C43.81933654 12.46348063 44.51228484 14.61734377 45.47265625 17.42578125 C46.5243797 22.55974978 46.21450258 27.78838185 46 33 C45.34 33 44.68 33 44 33 C44.66 33.99 45.32 34.98 46 36 C46 36.99 46 37.98 46 39 C46.969375 38.979375 47.93875 38.95875 48.9375 38.9375 C52 39 52 39 53 40 C53.04063832 41.66617115 53.042721 43.33388095 53 45 C52.34 45 51.68 45 51 45 C51.2784375 45.8971875 51.2784375 45.8971875 51.5625 46.8125 C52 49 52 49 51 52 C50.34 52 49.68 52 49 52 C49 52.66 49 53.32 49 54 C48.01 54 47.02 54 46 54 C46.02320313 54.89203125 46.04640625 55.7840625 46.0703125 56.703125 C46.08835937 57.87359375 46.10640625 59.0440625 46.125 60.25 C46.14820313 61.41015625 46.17140625 62.5703125 46.1953125 63.765625 C45.89583333 68.725 45.89583333 68.725 44 71 C40.875 71.75 40.875 71.75 38 72 C38.10828125 73.39798828 38.10828125 73.39798828 38.21875 74.82421875 C39.07772221 86.62315643 39.48841713 98.22555736 38 110 C39.32 110 40.64 110 42 110 C42 112.97 42 115.94 42 119 C39.39619004 119.19476139 36.79224467 119.38108614 34.1875 119.5625 C33.08051758 119.64661133 33.08051758 119.64661133 31.95117188 119.73242188 C28.63211484 119.95769724 26.18767436 120.06255812 23 119 C23 111.74 23 104.48 23 97 C21.02 97.495 21.02 97.495 19 98 C19 104.93 19 111.86 19 119 C11.4740821 119.75259179 7.01428095 120.01820207 0 119 C0 116.03 0 113.06 0 110 C1.32 110 2.64 110 4 110 C3.91621094 109.18015625 3.83242187 108.3603125 3.74609375 107.515625 C3.64425781 106.43796875 3.54242188 105.3603125 3.4375 104.25 C3.33308594 103.18265625 3.22867188 102.1153125 3.12109375 101.015625 C3.01439926 98.35858796 3.18069605 96.50039428 4 94 C1.525 94.495 1.525 94.495 -1 95 C-5.35441223 89.77127665 -5.51080574 85.78557747 -5.25 79.125 C-5.23195312 78.24585938 -5.21390625 77.36671875 -5.1953125 76.4609375 C-5.14848379 74.3068168 -5.07674994 72.15326226 -5 70 C-5.66 70 -6.32 70 -7 70 C-7.90126325 63.09031509 -5.14914715 58.44337654 -1 53 C2.04070808 50.20254857 2.65531716 50 7 50 C7 49.34 7 48.68 7 48 C6.24074219 48.08378906 5.48148438 48.16757812 4.69921875 48.25390625 C2 48 2 48 0.26953125 46.27734375 C-3.73991271 39.83858522 -6.89998459 33.79986641 -6 26 C-5.01032283 23.12206847 -3.93374689 20.30336363 -2.77734375 17.48828125 C-1.70544577 14.90911425 -1.70544577 14.90911425 -3 12 C-3.12781786 9.32605036 -3.04391871 6.67904143 -3 4 C-2.34 4 -1.68 4 -1 4 C-0.67 2.68 -0.34 1.36 0 0 Z M31 21 C31 21.66 31 22.32 31 23 C30.34 23 29.68 23 29 23 C29 23.66 29 24.32 29 25 C28.01 25.33 27.02 25.66 26 26 C26 26.66 26 27.32 26 28 C25.34 28 24.68 28 24 28 C24 28.99 24 29.98 24 31 C21.03 31 18.06 31 15 31 C15.33 29.68 15.66 28.36 16 27 C16.99 27 17.98 27 19 27 C19 25.68 19 24.36 19 23 C18.34 23 17.68 23 17 23 C17 23.66 17 24.32 17 25 C15.68 25.33 14.36 25.66 13 26 C13.33 29.3 13.66 32.6 14 36 C11.36 36 8.72 36 6 36 C6 33.69 6 31.38 6 29 C5.01 29 4.02 29 3 29 C2.94604522 30.62463842 2.90722805 32.24978541 2.875 33.875 C2.85179687 34.77992188 2.82859375 35.68484375 2.8046875 36.6171875 C2.75675164 39.18806994 2.75675164 39.18806994 5 41 C5.103125 41.66 5.20625 42.32 5.3125 43 C5.8334978 45.25885049 5.8334978 45.25885049 8.375 46.25 C11.02575511 47.13736056 11.02575511 47.13736056 14 47 C14 47.66 14 48.32 14 49 C14.66 49 15.32 49 16 49 C15.67 49.99 15.34 50.98 15 52 C18.24184142 53.29614601 18.24184142 53.29614601 22 54 C24.90924342 52.77401355 24.90924342 52.77401355 27 51 C26.34 50.34 25.68 49.68 25 49 C26.216875 48.608125 27.43375 48.21625 28.6875 47.8125 C33.32869973 46.08439372 36.73895404 43.52209191 39 39 C39.06996014 37.29297265 39.08440154 35.58331997 39.0625 33.875 C39.05347656 32.96492188 39.04445313 32.05484375 39.03515625 31.1171875 C39.02355469 30.41851562 39.01195312 29.71984375 39 29 C38.01 29 37.02 29 36 29 C36 30.65 36 32.3 36 34 C33.36 34 30.72 34 28 34 C28 31.69 28 29.38 28 27 C29.98 27 31.96 27 34 27 C34 25.02 34 23.04 34 21 C33.01 21 32.02 21 31 21 Z M30 29 C30 29.99 30 30.98 30 32 C31.32 32 32.64 32 34 32 C34 31.01 34 30.02 34 29 C32.68 29 31.36 29 30 29 Z M8 31 C8 31.99 8 32.98 8 34 C9.32 34 10.64 34 12 34 C12 33.01 12 32.02 12 31 C10.68 31 9.36 31 8 31 Z M42 37 C40.74050951 38.03406673 40.74050951 38.03406673 40.90234375 40.28515625 C40.91394531 41.20167969 40.92554688 42.11820312 40.9375 43.0625 C40.94652344 43.98160156 40.95554687 44.90070313 40.96484375 45.84765625 C40.97644531 46.55792969 40.98804688 47.26820313 41 48 C41.66 48 42.32 48 43 48 C43 47.34 43 46.68 43 46 C44.32 46 45.64 46 47 46 C47 45.34 47 44.68 47 44 C45.68 44 44.36 44 43 44 C43 41.69 43 39.38 43 37 C42.67 37 42.34 37 42 37 Z M48 42 C47.67 42.66 47.34 43.32 47 44 C48.32 43.67 49.64 43.34 51 43 C50.01 42.67 49.02 42.34 48 42 Z M38 44 C39 46 39 46 39 46 Z M36 47 C37 49 37 49 37 49 Z M47 47 C47 47.66 47 48.32 47 49 C47.66 49 48.32 49 49 49 C49 48.34 49 47.68 49 47 C48.34 47 47.68 47 47 47 Z M39 48 C39 48.99 39 49.98 39 51 C39.66 51 40.32 51 41 51 C41 50.01 41 49.02 41 48 C40.34 48 39.68 48 39 48 Z M43 48 C42.67 48.66 42.34 49.32 42 50 C42.66 50 43.32 50 44 50 C44 50.66 44 51.32 44 52 C45.65 52 47.3 52 49 52 C48.34 51.67 47.68 51.34 47 51 C46.67 50.01 46.34 49.02 46 48 C45.01 48 44.02 48 43 48 Z M29 50 C28.67 50.99 28.34 51.98 28 53 C24.74967884 55.28726304 21.88899525 55.317469 18 55 C16.31923769 54.36971413 14.65204456 53.70211894 13 53 C8.52335241 51.8808381 6.11171066 51.90270883 2 54 C0.1327845 55.95599573 0.1327845 55.95599573 -1.3125 58.3125 C-2.08013672 59.45138672 -2.08013672 59.45138672 -2.86328125 60.61328125 C-4.35832578 63.31176305 -4.35832578 63.31176305 -4 68 C-0.7 68 2.6 68 6 68 C6 65.36 6 62.72 6 60 C6.66 60.33 7.32 60.66 8 61 C8 63.64 8 66.28 8 69 C4.37 69.33 0.74 69.66 -3 70 C-3.65778139 81.41445425 -3.65778139 81.41445425 0 92 C1.65 92 3.3 92 5 92 C5 90.68 5 89.36 5 88 C5.99 88 6.98 88 8 88 C8 87.34 8 86.68 8 86 C7.34 86 6.68 86 6 86 C6 81.05 6 76.1 6 71 C6.66 71 7.32 71 8 71 C8 73.97 8 76.94 8 80 C16.58 80 25.16 80 34 80 C35.49297212 77.01405576 35.11755228 74.29146376 35 71 C34.505 70.01 34.505 70.01 34 69 C34.10397475 64.92898866 34.54960563 61.07594212 36.125 57.3125 C37.28167114 54.25558341 36.72832427 52.13179436 36 49 C33.57202689 49 31.37092995 49.50085685 29 50 Z M39 53 C38.30364247 55.28931274 37.61765623 57.5808757 36.9375 59.875 C36.73833984 60.52597656 36.53917969 61.17695313 36.33398438 61.84765625 C35.07461759 65.46707456 35.07461759 65.46707456 36 69 C38.37305578 69.41780879 38.37305578 69.41780879 41 69 C43.94537252 65.22103148 44.34297379 62.40353828 44.1875 57.6875 C44.16042969 56.61886719 44.13335937 55.55023438 44.10546875 54.44921875 C44.07066406 53.64097656 44.03585937 52.83273437 44 52 C42.27917076 52 40.65771414 52.5722028 39 53 Z M8 82 C8 82.66 8 83.32 8 84 C8.66 84 9.32 84 10 84 C10 85.98 10 87.96 10 90 C9.01 90 8.02 90 7 90 C6.11744572 96.7294764 5.91407045 103.21156583 6 110 C9.3 110 12.6 110 16 110 C16 104.72 16 99.44 16 94 C18.64 94 21.28 94 24 94 C26.30536555 99.47524319 26.15802031 104.15324857 26 110 C29.3 110 32.6 110 36 110 C36 100.76 36 91.52 36 82 C26.76 82 17.52 82 8 82 Z M2 113 C2 114.32 2 115.64 2 117 C6.95 117 11.9 117 17 117 C17 115.35 17 113.7 17 112 C9.43592467 111.79410279 9.43592467 111.79410279 2 113 Z M25 112 C25 113.65 25 115.3 25 117 C29.95 117 34.9 117 40 117 C40 115.68 40 114.36 40 113 C35.03926578 111.67713754 30.08888488 111.91106803 25 112 Z " fill="#ebebeb" transform="translate(239,161)"/>
<path d="M0 0 C0 1.65 0 3.3 0 5 C-1.32 5 -2.64 5 -4 5 C-4 3.68 -4 2.36 -4 1 C-2 0 -2 0 0 0 Z " fill="#FF4700" transform="translate(254,201)"/>
<path d="M0 0 C2.64 0 5.28 0 8 0 C8 0.66 8 1.32 8 2 C5.36 2 2.72 2 0 2 C0 1.34 0 0.68 0 0 Z " fill="#ebebeb" transform="translate(257,203)"/>
<path d="M0 0 C1.32 0.33 2.64 0.66 4 1 C4 1.66 4 2.32 4 3 C2.68 2.67 1.36 2.34 0 2 C0 1.34 0 0.68 0 0 Z " fill="#FF4700" transform="translate(245,199)"/>
<path d="" fill="#ebebeb" transform="translate(0,0)"/>
</svg>
